<svg xmlns="http://www.w3.org/2000/svg" viewBox="3617.922 6692.692 15.068 14.377">
  <defs>
    <style>
      .cls-1 {
        fill: #393f57;
      }
    </style>
  </defs>
  <path id="Path_247" data-name="Path 247" class="cls-1" d="M7.023,18.609H3.785V8.938H7.023ZM5.382,7.6h0A1.669,1.669,0,0,1,3.569,5.915,1.693,1.693,0,0,1,5.382,4.232,1.693,1.693,0,0,1,7.2,5.915,1.624,1.624,0,0,1,5.382,7.6ZM18.637,18.609H15.4V13.428c0-1.3-.475-2.2-1.641-2.2a1.725,1.725,0,0,0-1.641,1.166,2.144,2.144,0,0,0-.086.777v5.4H8.793s.043-8.808,0-9.714h3.238v1.382a3.24,3.24,0,0,1,2.893-1.6c2.116,0,3.713,1.382,3.713,4.361Z" transform="translate(3614.353 6688.461)"/>
</svg>
