<svg xmlns="http://www.w3.org/2000/svg" viewBox="2469 5259 1253 319">
  <defs>
    <style>
      .cls-1 {
        fill: #2472b4;
      }

      .cls-2, .cls-23, .cls-24 {
        fill: #232145;
      }

      .cls-3 {
        fill: #6a6a6a;
        opacity: 0.422;
      }

      .cls-11, .cls-22, .cls-4 {
        fill: #406b97;
      }

      .cls-5 {
        fill: #191938;
      }

      .cls-6 {
        fill: #201e40;
        opacity: 0.631;
      }

      .cls-7 {
        fill: #07071f;
        opacity: 0.507;
      }

      .cls-8 {
        fill: #2066a3;
      }

      .cls-9 {
        fill: #2b55a3;
      }

      .cls-10 {
        fill: #454598;
      }

      .cls-11 {
        opacity: 0.287;
      }

      .cls-12 {
        fill: #201f41;
      }

      .cls-13, .cls-14, .cls-16, .cls-18, .cls-19 {
        fill: #fff;
      }

      .cls-13 {
        opacity: 0.272;
      }

      .cls-14 {
        opacity: 0.725;
      }

      .cls-15 {
        fill: #2e307f;
      }

      .cls-17 {
        fill: #8e8b8b;
      }

      .cls-18 {
        opacity: 0.292;
      }

      .cls-19 {
        opacity: 0.461;
      }

      .cls-20 {
        fill: #2471b3;
      }

      .cls-21 {
        fill: #2d317d;
      }

      .cls-22 {
        opacity: 0.505;
      }

      .cls-23 {
        opacity: 0.367;
      }

      .cls-24 {
        opacity: 0.374;
      }
    </style>
  </defs>
  <g id="Symbol_1_1" data-name="Symbol 1 – 1" transform="translate(1885 5183)">
    <circle id="Ellipse_479" data-name="Ellipse 479" class="cls-1" cx="3" cy="3" r="3" transform="translate(1757 190)"/>
    <circle id="Ellipse_480" data-name="Ellipse 480" class="cls-2" cx="3" cy="3" r="3" transform="translate(1737 275)"/>
    <circle id="Ellipse_481" data-name="Ellipse 481" class="cls-3" cx="5.5" cy="5.5" r="5.5" transform="translate(1656 112)"/>
    <circle id="Ellipse_482" data-name="Ellipse 482" class="cls-4" cx="4" cy="4" r="4" transform="translate(1592 123)"/>
    <circle id="Ellipse_483" data-name="Ellipse 483" class="cls-5" cx="4" cy="4" r="4" transform="translate(1718 131)"/>
    <circle id="Ellipse_484" data-name="Ellipse 484" class="cls-2" cx="4" cy="4" r="4" transform="translate(1386 278)"/>
    <circle id="Ellipse_485" data-name="Ellipse 485" class="cls-6" cx="4" cy="4" r="4" transform="translate(997 325)"/>
    <circle id="Ellipse_486" data-name="Ellipse 486" class="cls-7" cx="4" cy="4" r="4" transform="translate(862 323)"/>
    <circle id="Ellipse_487" data-name="Ellipse 487" class="cls-8" cx="4" cy="4" r="4" transform="translate(584 188)"/>
    <circle id="Ellipse_488" data-name="Ellipse 488" class="cls-9" cx="4" cy="4" r="4" transform="translate(1344 140)"/>
    <circle id="Ellipse_489" data-name="Ellipse 489" class="cls-10" cx="4" cy="4" r="4" transform="translate(1513 76)"/>
    <circle id="Ellipse_490" data-name="Ellipse 490" class="cls-11" cx="4" cy="4" r="4" transform="translate(1829 305)"/>
    <circle id="Ellipse_491" data-name="Ellipse 491" class="cls-12" cx="2" cy="2" r="2" transform="translate(1738 148)"/>
    <circle id="Ellipse_492" data-name="Ellipse 492" class="cls-12" cx="2" cy="2" r="2" transform="translate(1667 196)"/>
    <circle id="Ellipse_493" data-name="Ellipse 493" class="cls-12" cx="2" cy="2" r="2" transform="translate(1629 228)"/>
    <circle id="Ellipse_494" data-name="Ellipse 494" class="cls-13" cx="2" cy="2" r="2" transform="translate(1425 91)"/>
    <circle id="Ellipse_495" data-name="Ellipse 495" class="cls-14" cx="2" cy="2" r="2" transform="translate(1445 181)"/>
    <circle id="Ellipse_496" data-name="Ellipse 496" class="cls-15" cx="2" cy="2" r="2" transform="translate(1465 301)"/>
    <circle id="Ellipse_497" data-name="Ellipse 497" class="cls-16" cx="2" cy="2" r="2" transform="translate(1594 351)"/>
    <circle id="Ellipse_498" data-name="Ellipse 498" class="cls-16" cx="2" cy="2" r="2" transform="translate(1429 372)"/>
    <circle id="Ellipse_499" data-name="Ellipse 499" class="cls-2" cx="2" cy="2" r="2" transform="translate(1521 355)"/>
    <circle id="Ellipse_500" data-name="Ellipse 500" class="cls-16" cx="2" cy="2" r="2" transform="translate(1243 349)"/>
    <circle id="Ellipse_501" data-name="Ellipse 501" class="cls-17" cx="2" cy="2" r="2" transform="translate(1269 382)"/>
    <circle id="Ellipse_502" data-name="Ellipse 502" class="cls-8" cx="2" cy="2" r="2" transform="translate(736 280)"/>
    <circle id="Ellipse_503" data-name="Ellipse 503" class="cls-2" cx="2" cy="2" r="2" transform="translate(748 391)"/>
    <circle id="Ellipse_504" data-name="Ellipse 504" class="cls-16" cx="2" cy="2" r="2" transform="translate(892 236)"/>
    <circle id="Ellipse_505" data-name="Ellipse 505" class="cls-18" cx="2" cy="2" r="2" transform="translate(1010 254)"/>
    <circle id="Ellipse_506" data-name="Ellipse 506" class="cls-19" cx="2" cy="2" r="2" transform="translate(1123 248)"/>
    <circle id="Ellipse_507" data-name="Ellipse 507" class="cls-16" cx="2" cy="2" r="2" transform="translate(1264 119)"/>
    <circle id="Ellipse_508" data-name="Ellipse 508" class="cls-20" cx="2" cy="2" r="2" transform="translate(919 321)"/>
    <circle id="Ellipse_509" data-name="Ellipse 509" class="cls-21" cx="2" cy="2" r="2" transform="translate(590 250)"/>
    <circle id="Ellipse_510" data-name="Ellipse 510" class="cls-22" cx="5.5" cy="5.5" r="5.5" transform="translate(1592 179)"/>
    <circle id="Ellipse_511" data-name="Ellipse 511" class="cls-23" cx="5.5" cy="5.5" r="5.5" transform="translate(1258 286)"/>
    <circle id="Ellipse_512" data-name="Ellipse 512" class="cls-24" cx="5.5" cy="5.5" r="5.5" transform="translate(625 301)"/>
  </g>
</svg>
