<?xml version="1.0" encoding="utf-8"?>
<!-- Generator: Adobe Illustrator 19.2.1, SVG Export Plug-In . SVG Version: 6.00 Build 0)  -->
<svg version="1.1" id="Layer_1" xmlns="http://www.w3.org/2000/svg" xmlns:xlink="http://www.w3.org/1999/xlink" x="0px" y="0px"
	 viewBox="0 0 1000 1000" style="enable-background:new 0 0 1000 1000;" xml:space="preserve">
<style type="text/css">
	.st0{fill:#480E44;}
	.st1{fill:#C7C6C6;}
</style>
<g>
	<path id="Path_6_1_" class="st0" d="M21.7372,217.9096l-9.1-9.1c0.9239-2.3931,0.334-5.1065-1.5-6.9
		c-1.9568-1.9291-4.9029-2.4467-7.4-1.3l4.3,4.3l-3,3l-4.4-4.3c-1.1979,2.4903-0.675,5.4671,1.3,7.4
		c1.7935,1.834,4.5069,2.4239,6.9,1.5l9.1,9.1c0.3685,0.3866,0.9806,0.4013,1.3671,0.0329
		c0.0112-0.0107,0.0222-0.0216,0.0329-0.0329l2.3-2.3c0.4088-0.2828,0.5109-0.8434,0.2281-1.2522
		C21.8281,218.0036,21.7852,217.9541,21.7372,217.9096z"/>
</g>
<g>
	<path id="ic_expand_less_24px_1_" class="st0" d="M6,0L0,6l1.41,1.41L6,2.83l4.59,4.58L12,6L6,0z"/>
</g>
<g>
	<path id="Path_7_1_" class="st0" d="M14,101.535l-1.41-1.41L7,105.715l-5.59-5.59L0,101.535l5.59,5.59L0,112.715l1.41,1.41
		l5.59-5.59l5.59,5.59l1.41-1.41l-5.59-5.59L14,101.535z"/>
</g>
<g>
	<path id="ic_expand_more_24px_1_" class="st1" d="M12.659,300.0126l-5.487,4.58l-5.487-4.58L0,301.4226l7.172,6l7.172-6
		L12.659,300.0126z"/>
</g>
<g>
	<path id="ic_menu_24px_1_" class="st0" d="M0,411.9993h18v-2H0V411.9993z M0,406.9993h18v-2H0V406.9993z M0,399.9993v2h18v-2H0z"/>
</g>
<g>
	<path id="ic_file_download_24px_1_" class="st0" d="M15.084,506.0252h-4.31v-6H4.31v6H0l7.542,7L15.084,506.0252z M0,515.0252v2
		h15.084v-2H0z"/>
</g>
<g>
	<path id="Path_12_1_" class="st0" d="M12.6582,600.0315H1.8102c-1.0504,0.0555-1.8585,0.9493-1.808,2v14
		c-0.0505,1.0507,0.7576,1.9445,1.808,2h12.656c1.0489-0.0587,1.8551-0.9506,1.808-2v-12L12.6582,600.0315z M8.1382,616.0315
		c-1.5765-0.0814-2.7896-1.4233-2.712-3c-0.0776-1.5767,1.1355-2.9186,2.712-3c1.5765,0.0814,2.7896,1.4233,2.712,3
		C10.9279,614.6082,9.7147,615.9501,8.1382,616.0315z M10.8502,606.0315h-9.04v-4h9.04V606.0315z"/>
</g>
<g>
	<path id="Path_5_1_" class="st0" d="M12.5201,711.0579h-0.79l-0.28-0.27c2.3417-2.7283,2.0283-6.8382-0.7-9.1799
		s-6.8382-2.0283-9.1799,0.7s-2.0283,6.8382,0.7,9.1799c2.439,2.0934,6.0409,2.0934,8.4799,0l0.27,0.28v0.79l5,4.99l1.49-1.49
		L12.5201,711.0579z M6.5201,711.0579c-2.4853,0-4.5-2.0147-4.5-4.5s2.0147-4.5,4.5-4.5s4.5,2.0147,4.5,4.5
		c0.0033,2.4819-2.006,4.4967-4.488,4.5C6.5281,711.0579,6.5241,711.0579,6.5201,711.0579z"/>
</g>
<g>
	<path id="ic_expand_less_24px_2_" class="st0" d="M6,807.4541l6-6l-1.41-1.41l-4.59,4.58l-4.59-4.58l-1.41,1.41L6,807.4541z"/>
</g>
</svg>
