<svg xmlns="http://www.w3.org/2000/svg" viewBox="0 0 1019.46 510.58"><defs><style>.cls-1{fill:#551552;}</style></defs><title>cwel_logo</title><g id="Layer_2" data-name="Layer 2"><g id="Layer_1-2" data-name="Layer 1"><path class="cls-1" d="M129.82,510.58A21.24,21.24,0,0,1,118.13,507c-15.79-10.33-17-39.1-15.15-61.42,2.42-29.89,11.33-63.23,25.08-93.87a144.27,144.27,0,0,0,7.31-20c-35.31-18.22-57-35.59-71.84-56.85A124,124,0,0,1,50.6,251.21c-45.28-20.67-55.1-44.39-48.94-60,2.31-5.84,9.14-15.9,28.85-17.62q2.69-.23,5.58-.24-.21-4.16-.37-8.51c0-.28,0-.56,0-.84a18.18,18.18,0,0,1,.2-5.74c.2-1,.38-2.27.58-3.6,1.38-9.21,3.69-24.62,19.08-34.88,20.16-13.45,55.67-13.19,111.75.83q7.29,1.82,14.31,4.08c4.06-26.82,10.89-51,20.4-72.29,8.11-18.13,15.25-31,21.84-39.36,8.85-11.23,17.9-15.25,26.89-12C262.9,5.56,266.36,21.2,268,34.32c1.68,13.34,2,31.4.88,52.22a637.57,637.57,0,0,1-10.31,83.75q1.37,1.35,2.7,2.73c21.41,22.12,35,48.24,38.23,73.55,2.65,20.63-2.11,38.82-13,51.56,23.9,20.16,24.77,35.91,19.58,46.66-6.87,14.23-26.5,21.83-55.24,21.39A182.36,182.36,0,0,1,225.72,364c4.76,17.6,8.31,28.14,8.38,28.37,9.67,28.44,32.83,76.65,53.83,84.9a13,13,0,0,0,11.83-.67c11.52-6.2,25.12-43.74,37.11-76.87,13.41-37,28.61-79,49.64-110.44,25.89-38.72,56.93-54.76,92.29-47.67a11.5,11.5,0,1,1-4.52,22.55c-59.54-11.93-90.72,74.2-115.79,143.4-16,44.09-28.59,78.92-47.84,89.28a36.06,36.06,0,0,1-31.16,1.82c-37.73-14.85-64.28-90.35-67.18-98.92-.27-.79-2.77-8.22-6.33-20.71-14.27,51.13-30.07,95-49.6,116.49C145.84,507.14,136.81,510.58,129.82,510.58Zm26.53-168.66A170.68,170.68,0,0,1,149,361.16c-12.38,27.59-20.79,58.75-23.07,85.5-2.32,27.21,2.35,38.28,4.35,40.72,1.15-.42,4.16-1.95,9-7.33,18.58-20.47,34.75-70.18,49.32-125.1a257.66,257.66,0,0,1-24.14-9.33Q160.34,343.76,156.35,341.92Zm63.16-2.48a169.08,169.08,0,0,0,31.72,3.76c21.78.33,32.53-5,34.19-8.4.92-1.89-1.06-9.77-18-22.61-13.75,6.22-29.16,7.73-45.67,6q-1.85,7.53-3.73,15Q218.78,336.37,219.5,339.44ZM161.56,319q5.93,2.8,12.33,5.65c6.68,3,13.53,5.63,20.42,7.95-1.46-6.63-2.92-13.65-4.33-21-8.86-2.6-17.92-5.79-27.08-9.38A132.3,132.3,0,0,1,161.56,319ZM87.43,268c11.89,14.39,28.61,27.07,52.17,39.89a104.12,104.12,0,0,0,0-15.49c-13.19-5.85-26.49-12.19-39.69-18.48Zm139.85,27.65a80.53,80.53,0,0,0,13.92-.11Q238,293.8,234.56,292l-5.67-3Zm-66.71-19.21c8.47,3.56,16.81,6.83,24.92,9.62q-.63-4-1.23-8-1-6.77-1.86-13.44-16.82-8.92-31.52-16.88,1.33,2.74,2.52,5.54A118.86,118.86,0,0,1,160.57,276.44ZM234.5,266l10.7,5.59c8.57,4.47,16.06,8.79,22.61,13,7.6-7.82,10.81-20.13,8.9-35.05-2.11-16.41-10.16-34.82-24.22-52q-1.09,4.2-2.23,8.12C245.11,223.42,239.9,244,234.5,266Zm-27,11.81.18,1.17.23-1ZM68.7,234c13.6,6,27.54,12.65,41.08,19.1,7.73,3.69,15.51,7.39,23.24,11q-.38-1-.79-1.92c-13.42-31.6-41.3-51.17-62.91-59q-4-1.45-7.9-2.6A171.09,171.09,0,0,0,68.7,234Zm135.11,15.84,9.71,5.12c5-20.18,9.82-39.1,14.65-55.75,1.85-6.37,3.61-13.38,5.27-20.87a165.15,165.15,0,0,0-32.17-21C199.06,189.46,200.68,221.48,203.81,249.89Zm-145-88.71c1.69,3.1,10.09,12.85,51.24,37.19,18.7,11.06,41.52,23.66,69.4,38.56a537.16,537.16,0,0,1-1.71-71.42q.42-8.9,1.18-17.48-8.21-2.84-17.11-5.08C102,128,78,132.51,68.35,138.93c-6.43,4.29-7.78,10.38-9.1,19.16C59.09,159.15,58.94,160.17,58.77,161.18ZM36.29,196.37q-2,0-3.79.16c-7,.61-9.29,2.77-9.45,3.17-.29.72.46,4.37,5.4,9.75a69.06,69.06,0,0,0,13,10.66c-1.46-7.32-2.63-15.18-3.54-23.7Zm167.44-63.19a194.32,194.32,0,0,1,34.61,20c3.32-19.65,5.85-40.85,7.19-61.12,2.55-38.51-.09-58-2.48-66.05-3.64,4.26-10.23,14-20,35.84C213.16,83.92,207.09,108.28,203.73,133.18Z"/><path class="cls-1" d="M895,404.71a27.08,27.08,0,0,1-6.26-.71c-7.26-1.72-19.49-8.13-19.77-31.75q-.07-5.66.29-11.53c-34.55,23.67-64.89,35.15-81,36-19.24,1-34.65-5.37-43.37-17.92q-7.15-10.28-8-25c-20,3.88-35.14.32-45-10.62a35.67,35.67,0,0,1-4.49-6.26c-16.54,32.11-36.08,51.13-58.24,56.61-16.4,4.06-26-1.87-31.18-7.55-6.23-6.85-9.47-17.26-9.76-31.49-15.42,21.42-34.71,38.83-56.72,38.84-.63,0-1.26,0-1.89,0-8.7-.4-15.88-4.52-20.22-11.62-2.39-3.91-4.78-9.67-5-19.68a149.71,149.71,0,0,1-29.27,22.58c-13.08,7.75-38.46,20-61.41,14.7-12.32-2.82-33.25-13.25-35.21-51.47-.31-4.14-3.17-51.18,26.22-81.66,17.26-17.9,41.61-26.23,72.4-24.75a11.5,11.5,0,0,1-1.1,23c-23.86-1.15-42.28,4.82-54.74,17.74-22.95,23.8-19.87,63.58-19.84,64q0,.2,0,.4c1.33,26.7,13.4,29.46,17.37,30.37,10.92,2.5,27.58-2,44.57-12.07,16-9.47,30.17-22.62,36.1-33.48,15.35-28.15,25.61-50.33,29.57-59.19,1.14-2.64,1.85-4.22,2-4.44a11.5,11.5,0,0,1,21,9.27c-.11.25-.77,1.8-2,4.48-3,7-9.08,21.69-14.19,37.68-12.65,39.53-7.57,49.56-6.95,50.58.24.4.36.59,1.65.65l.84,0c24.84,0,55.54-49.48,73.26-98.93a11.5,11.5,0,0,1,21.68,7.68,366.48,366.48,0,0,0-11.49,42.16c-7.78,38.28-1.32,47.76.06,49.27.52.57,2.1,2.31,8.64.69,27.88-6.89,48.28-50.14,59.49-83.73A180.59,180.59,0,0,1,692,255.7a11.5,11.5,0,0,1,22,6.6c-.16.77-2.82,13.05-8.27,29.85-2.53,14.23-2.83,28.86,3.3,35.67s19.63,4.71,30,1.88l.14,0a182.92,182.92,0,0,1,11.14-33.31c20.41-47.19,62.27-69.77,89.37-63.63,16.44,3.73,26.22,17.36,25.53,35.59-.74,19.47-10.6,35.29-30.17,48.36-16.13,10.78-40.25,20.75-75.24,31-.36,9.45,1.84,14.92,3.95,17.95,5.15,7.41,15.51,8.48,23.29,8.08,11.92-.62,43.61-12.11,82.09-41.26q2.21-1.68,4.51-3.48c9.15-44.6,30.88-97.13,57.25-158,16.17-37.31,40-62.67,60.61-64.6a23.57,23.57,0,0,1,22.35,10.35c11.87,17.53,5,53.43-19.45,101.09a392.25,392.25,0,0,1-99.76,123.78A169.9,169.9,0,0,0,891.92,372c.09,7.73,1.91,9.58,1.93,9.6,1.49.74,12.29-.23,34-18.65,16.44-14,32.58-32.75,39.24-45.65a11.5,11.5,0,1,1,20.44,10.55c-7.71,14.95-24.41,34.85-42.54,50.7C925,395.94,908.27,404.71,895,404.71ZM830,254.68c-16.41,0-43.75,16.28-58.67,50.8-2.63,6.08-4.72,11.59-6.36,16.58,62.34-19.71,76.48-36.32,77.17-54.62.35-9.28-3.9-11.44-7.63-12.29A20.39,20.39,0,0,0,830,254.68ZM994,129.26c-1.82,0-7.1,1.68-14.38,8.47-10,9.33-19.83,24.4-27.65,42.44-19.77,45.62-36.85,86.34-47.68,121.86a368.35,368.35,0,0,0,69.61-94.65c28.63-55.88,22.91-76.34,20.59-78.05A1.52,1.52,0,0,0,994,129.26Z"/></g></g></svg>