<?xml version="1.0" encoding="utf-8"?>
<!-- Generator: Adobe Illustrator 16.0.0, SVG Export Plug-In . SVG Version: 6.00 Build 0)  -->
<!DOCTYPE svg PUBLIC "-//W3C//DTD SVG 1.1//EN" "http://www.w3.org/Graphics/SVG/1.1/DTD/svg11.dtd">
<svg version="1.1" id="Layer_1" xmlns="http://www.w3.org/2000/svg" xmlns:xlink="http://www.w3.org/1999/xlink" x="0px" y="0px"
	 width="1190.549px" height="841.891px" viewBox="0 0 1190.549 841.891" enable-background="new 0 0 1190.549 841.891"
	 xml:space="preserve">
<g id="g10" transform="matrix(1.3333333,0,0,-1.3333333,0,547.46667)">
	<g id="g12" transform="scale(0.1)">
		<path id="path14" fill="#CD4A9C" d="M3903.13,980.69c-17.38,12.371-14.495,52.346,42.671,176.873
			c22.434,48.889,73.638,131.199,162.649,209.861c10.305-32.351,16.597-63.376,16.421-92.256
			C4123.721,1082.512,3986.26,1010.559,3903.13,980.69L3903.13,980.69z M3171.448,813.903
			c-23.298-12.195-44.656-19.849-54.587-13.945c-7.28,4.351,9.609,20.398,9.609,20.398s118.806,127.808,165.601,186.006
			c27.217,33.838,58.777,74.011,93.171,118.938c0.278-4.49,0.425-8.943,0.425-13.337
			C3385.315,958.842,3237.409,855.461,3171.448,813.903z M2221.672,1267.082c-54.961-133.989-169.995-476.777-240-458.408
			c-60.103,15.769-96.702,276.35-12.004,532.8c42.634,129.089,133.703,283.337,187.2,343.206
			c86.133,96.343,180.959,127.852,204.001,88.792C2390.239,1723.703,2256.132,1351.069,2221.672,1267.082z M1072.07,485.558
			c-157.8-172.148-378.259-237.209-472.8-182.41c-102.078,59.194-61.648,312.634,131.997,495.315
			c118.037,111.328,270.403,213.867,371.484,277.024c22.998,13.843,56.799,34.175,97.866,58.784
			c6.812,3.882,10.649,6.028,10.649,6.028l-0.146,0.264c7.932,4.739,16.047,9.609,24.441,14.619
			C1306.02,895.158,1237.7,666.24,1072.07,485.558L1072.07,485.558z M4744.17,1723.542
			c-191.455-1.011-357.268-46.97-496.274-115.481c-50.837,101.462-102.29,190.723-110.925,257.087
			c-10.093,77.483-21.782,123.706-9.602,216.002c12.188,92.3,65.588,223,64.812,232.789c-0.784,9.789-11.982,56.811-122.403,57.612
			c-110.427,0.788-204.888-21.24-215.999-50.401c-11.118-29.162-32.38-94.779-45.608-163.202
			c-19.343-100.129-220.474-457.229-334.673-644.048c-37.354,72.913-69.111,137.197-75.732,188.042
			c-10.078,77.476-21.775,123.699-9.595,216.006c12.188,92.292,65.588,223.012,64.805,232.8
			c-0.776,9.792-11.968,56.803-122.395,57.602c-110.435,0.791-204.888-21.24-215.999-50.398
			c-11.125-29.162-22.991-97.292-45.615-163.202c-22.617-65.918-289.981-661.611-360-816.006
			c-35.676-78.677-66.731-141.87-88.645-185.046c-0.066,0.11-0.139,0.242-0.139,0.242s-1.355-2.871-3.684-7.72
			c-18.757-36.738-29.927-57.07-29.927-57.07s0.117-0.278,0.33-0.762c-14.883-26.975-30.835-52.039-38.73-52.039
			c-5.522,0-16.567,71.821,2.41,170.398c39.778,206.646,135.352,528.904,134.399,540c-0.498,5.691,17.761,61.846-62.41,91.201
			c-77.93,28.521-105.681-19.05-112.793-19.197c-6.885-0.154-12.004-16.809-12.004-16.809s86.814,362.395-165.601,362.395
			c-157.815,0-376.479-172.625-484.204-329.106c-67.976-37.083-213.45-116.492-367.786-201.292
			c-59.282-32.556-119.773-65.852-177.136-97.449c-3.896,4.321-7.786,8.65-11.799,12.927
			c-306.072,326.55-871.882,557.527-847.874,996.533c8.73,159.599,64.204,579.84,1087.207,1089.599
			c838,417.58,1508.862,302.67,1624.797,47.999c165.623-363.838-358.535-1040.05-1228.806-1137.598
			c-331.582-37.17-506.17,91.33-549.602,139.197c-45.71,50.383-52.529,52.654-69.602,43.202c-27.795-15.41-10.181-59.89,0-86.4
			c25.994-67.628,132.612-187.551,314.4-247.2c159.924-52.481,549.221-81.31,1020,100.8
			c527.3,203.961,939.038,771.339,818.101,1245.601c-122.988,482.351-922.757,640.92-1679.685,372.001
			c-450.491-160.042-938.167-411.233-1288.806-739.201C74.46,2823.98,7.978,2484.572,35.37,2342.75
			c97.339-503.91,791.895-832.057,1070.017-1075.258c-13.726-7.573-26.594-14.685-38.306-21.145
			C927.636,1177.368,398.205,900.3,265.776,607.551C115.556,275.478,289.689,37.228,404.973,5.156
			c357.18-99.397,723.721,79.373,920.698,373.184c196.941,293.745,172.888,676.223,82.5,850.811
			c-1.121,2.168-2.358,4.292-3.508,6.438c35.999,21.313,72.715,42.986,109.109,64.351c70.972,41.675,140.625,80.552,201.086,113.452
			c-33.816-92.688-58.601-203.789-71.492-364.241c-15.139-188.503,62.117-432.151,163.206-528.01
			c44.509-42.195,98.057-43.191,131.997-43.191c117.634,0,171.313,97.859,230.398,213.604
			c72.495,141.951,136.802,307.2,136.802,307.2s-80.72-446.397,139.211-446.397c80.127,0,160.737,103.909,196.641,156.885
			c0.103-0.579,0.146-0.886,0.146-0.886s2.095,3.45,6.174,10.364c8.32,12.722,13.03,20.823,13.03,20.823s0.161,0.835,0.417,2.3
			c32.212,55.928,103.652,183.442,210.791,393.713c138.421,271.67,271.187,611.997,271.187,611.997s12.356-83.21,52.8-220.803
			c23.804-80.955,74.363-170.449,114.25-256.267c-32.109-44.553-51.848-70.144-51.848-70.144s0.19-0.469,0.542-1.326
			c-25.664-34.058-54.434-70.818-84.529-106.663c-109.255-130.115-239.385-278.708-256.816-321.599
			c-20.515-50.53-15.667-87.7,24.001-117.598c28.982-21.841,80.574-25.232,134.399-21.599
			c98.181,6.599,167.263,30.945,201.343,45.777c53.13,18.794,114.998,48.347,173.071,91.025
			c107.168,78.787,171.804,191.499,165.593,340.796c-3.435,82.28-29.678,163.828-62.864,240.82
			c9.727,13.982,19.475,28.088,29.26,42.378c168.948,246.995,300,518.401,300,518.401s12.349-83.196,52.808-220.796
			c20.471-69.653,60.857-145.62,97.178-220.144c-158.855-129.082-257.38-279.06-291.592-377.461
			c-63.245-181.97-13.704-264.426,79.211-283.198c42.092-8.511,101.536,10.781,146.25,29.707
			c55.642,18.45,122.505,49.182,184.951,95.083c107.168,78.794,210.212,189.119,204.001,338.408
			c-2.842,67.969-21.27,135.432-46.282,200.244c134.663,56.089,309.009,87.275,531.079,61.348
			c476.404-55.627,569.861-353.086,552.004-477.59c-17.871-124.512-117.803-192.942-151.216-213.611
			c-33.398-20.654-43.594-27.832-40.789-43.198c4.065-22.339,19.512-21.482,47.996-16.685
			c39.214,6.621,250.166,101.272,259.197,331.084C5518.838,1405.7,5239.309,1726.179,4744.17,1723.542"/>
	</g>
</g>
</svg>
