<svg xmlns="http://www.w3.org/2000/svg" viewBox="2206.5 5973.879 67.551 67.035">
  <defs>
    <style>
      .cls-1 {
        fill: none;
        stroke: #3c2c74;
        stroke-linecap: round;
        stroke-linejoin: round;
        stroke-miterlimit: 10;
        stroke-width: 3px;
      }
    </style>
  </defs>
  <g id="Symbol_3_1" data-name="Symbol 3 – 1" transform="translate(-265 3340.815)">
    <path id="Path_6357" data-name="Path 6357" class="cls-1" d="M7,20.265,20.265,7H70.931V56.76L57.278,70.413H7Z" transform="translate(2466 2628.185)"/>
    <path id="Path_6358" data-name="Path 6358" class="cls-1" d="M50,20.832H95.425L108.47,7.8" transform="translate(2428.565 2627.488)"/>
    <line id="Line_1267" data-name="Line 1267" class="cls-1" x1="13.2" y2="14.106" transform="translate(2523.731 2659.709)"/>
    <line id="Line_1268" data-name="Line 1268" class="cls-1" y2="8.283" transform="translate(2523.99 2648.32)"/>
    <line id="Line_1269" data-name="Line 1269" class="cls-1" y2="19.438" transform="translate(2523.99 2663.307)"/>
    <line id="Line_1270" data-name="Line 1270" class="cls-1" y2="10.741" transform="translate(2523.99 2687.016)"/>
    <line id="Line_1271" data-name="Line 1271" class="cls-1" x1="12.709" y2="12.709" transform="translate(2511.281 2635.185)"/>
    <path id="Path_6359" data-name="Path 6359" class="cls-1" d="M164.418,51.687V37.218h-2.394a3.624,3.624,0,1,1,0-7.247h2.394V19.722L177.126,7" transform="translate(2334.194 2628.185)"/>
    <path id="Path_6360" data-name="Path 6360" class="cls-1" d="M503.1,296.1" transform="translate(2034.103 2376.499)"/>
    <path id="Path_6361" data-name="Path 6361" class="cls-1" d="M171,265.318h12.76v-2.394a3.624,3.624,0,0,1,7.247,0v2.394h9.5" transform="translate(2323.224 2408.536)"/>
    <path id="Path_6362" data-name="Path 6362" class="cls-1" d="M64.365,305.8H51.605v2.394a3.624,3.624,0,1,1-7.247,0V305.8H39" transform="translate(2438.141 2368.054)"/>
    <path id="Path_6363" data-name="Path 6363" class="cls-1" d="M204.1,273.6v12.76h2.394a3.624,3.624,0,1,1,0,7.247H204.1v8.05" transform="translate(2294.408 2396.087)"/>
  </g>
</svg>
