<svg xmlns="http://www.w3.org/2000/svg" viewBox="3360.285 6693.594 16.643 13.476">
  <defs>
    <style>
      .cls-1 {
        fill: #393f57;
      }
    </style>
  </defs>
  <path id="Path_255" data-name="Path 255" class="cls-1" d="M16.543,1.583a7.629,7.629,0,0,1-1.954.539A3.208,3.208,0,0,0,16.071.236a7.013,7.013,0,0,1-2.156.842A3.408,3.408,0,0,0,8.019,3.4a2.872,2.872,0,0,0,.1.775A9.7,9.7,0,0,1,1.079.64,3.479,3.479,0,0,0,.641,2.325a3.4,3.4,0,0,0,1.516,2.83,3.445,3.445,0,0,1-1.55-.438V4.75A3.4,3.4,0,0,0,3.336,8.085a3.69,3.69,0,0,1-.91.135,3.731,3.731,0,0,1-.64-.067,3.412,3.412,0,0,0,3.167,2.358A6.876,6.876,0,0,1,.709,11.96,6.492,6.492,0,0,1-.1,11.926a9.517,9.517,0,0,0,5.256,1.55,9.636,9.636,0,0,0,9.7-9.7V3.335A6.963,6.963,0,0,0,16.543,1.583Z" transform="translate(3360.385 6693.594)"/>
</svg>
