<svg xmlns="http://www.w3.org/2000/svg" viewBox="3037.5 5966.16 78.969 78.37">
  <defs>
    <style>
      .cls-1, .cls-2 {
        fill: none;
        stroke: #c4c4c4;
        stroke-linecap: round;
        stroke-width: 3px;
      }

      .cls-1 {
        stroke-linejoin: round;
        stroke-miterlimit: 10;
      }
    </style>
  </defs>
  <g id="Symbol_4_1" data-name="Symbol 4 – 1" transform="translate(1604 5224.659)">
    <path id="Path_6369" data-name="Path 6369" class="cls-1" d="M74.633,73.462l-8.58-24.956L19.3,1.806h0a4.469,4.469,0,0,0-6.3,0l-10.083,10a4.469,4.469,0,0,0,0,6.3L49.748,64.969Z" transform="translate(1435.911 743.708)"/>
    <path id="Path_6370" data-name="Path 6370" class="cls-1" d="M65.376,1.461a4.707,4.707,0,0,1,6.617,0l9.925,9.925a4.707,4.707,0,0,1,0,6.617L62.378,37.5,45.6,20.8Z" transform="translate(1427.692 742.898)"/>
    <path id="Path_6371" data-name="Path 6371" class="cls-1" d="M17.784,81.507a4.707,4.707,0,0,1-6.617,0L1.242,71.661a4.707,4.707,0,0,1,0-6.617L21.869,44.5l16.7,16.7Z" transform="translate(1435.117 735.504)"/>
    <line id="Line_1284" data-name="Line 1284" class="cls-1" x1="11.501" y1="11.501" transform="translate(1488.216 759.015)"/>
    <line id="Line_1285" data-name="Line 1285" class="cls-1" x1="34.235" y1="34.235" transform="translate(1452.673 754.365)"/>
    <line id="Line_1286" data-name="Line 1286" class="cls-1" x1="6.617" y1="6.617" transform="translate(1497.196 756.849)"/>
    <path id="Path_6373" data-name="Path 6373" class="cls-2" d="M6.065,5.987,0,0" transform="translate(1451.278 805.642)"/>
    <line id="Line_1287" data-name="Line 1287" class="cls-1" x1="11.501" y1="11.501" transform="translate(1453.993 793.238)"/>
    <path id="Path_6372" data-name="Path 6372" class="cls-1" d="M77.769,60.6,61.7,76.591l12.326,4.291,7.985-8.016Z" transform="translate(1424.274 732.086)"/>
  </g>
</svg>
